<svg id="Calque_1" data-name="Calque 1" xmlns="http://www.w3.org/2000/svg" viewBox="0 0 1360.37 402.23"><defs><style>.cls-1{font-size:310px;font-family:Diffuse-Away;}.cls-1,.cls-2{fill:#beadfa;}.cls-3{fill:#dfccfb;}.cls-4{fill:#fff;}</style></defs><text class="cls-1" transform="translate(0 285.89)">Furr</text><path class="cls-2" d="M460,65.41q1.23-3.4,2.79-3.26a9.16,9.16,0,0,1,4,2l1.55,1.24q1.54,1.25,3.88,2.94t5.42,3.57l3.1,1.55A51.92,51.92,0,0,0,491,77.81,124.3,124.3,0,0,0,505,81.22l4.65.93a19.56,19.56,0,0,1,2.63.15,18,18,0,0,0,2.64.16,45.38,45.38,0,0,0,7.59.62c2.59,0,5.32-.1,8.22-.31,1.86,0,3.67,0,5.42-.16s3.67-.25,5.74-.46c1.86-.2,3.77-.36,5.74-.46a34.82,34.82,0,0,0,5.73-.78,163.46,163.46,0,0,0,18-2.79q10.85-1.86,21.85-4.34l22.17-5A243.58,243.58,0,0,1,649.25,40a246.68,246.68,0,0,1,37-21.55A213.85,213.85,0,0,1,724.12,4.8,148.46,148.46,0,0,1,760.7,0q16.11,0,27.59,3.72T806.89,14a40.18,40.18,0,0,1,10.54,15.34,53.54,53.54,0,0,1,3.41,19.38,91.79,91.79,0,0,1-6.36,32.39,120,120,0,0,1-17.82,31.63A114.28,114.28,0,0,1,769.22,138,78.92,78.92,0,0,1,734,150.66a34.15,34.15,0,0,1-14.1-1.09A29.69,29.69,0,0,1,708,143.06a26.48,26.48,0,0,1-7.29-11.31q-2.31-6.81-.46-15.81a34.21,34.21,0,0,1,4-9.3,100.48,100.48,0,0,1,7.44-10.85q4.34-5.58,9.45-11.16T731.25,74.4l-6,1.24q-3,.63-6.36,1.24-6.21,1.56-12.4,3.25T693.74,84Q682,88,669.25,92.69t-25.73,9.61l-7.44,2.79a194.73,194.73,0,0,0-19.69,30.69,135,135,0,0,0-11.31,29.76,186.77,186.77,0,0,0-5.58,38.28q-.63,18.15,3.41,32.09t12.87,22.16q8.84,8.22,23.4,8.22a107.89,107.89,0,0,0,33.32-4.5,157.18,157.18,0,0,0,30.38-12.7,201,201,0,0,0,27.29-18,292.38,292.38,0,0,0,23.55-20.45q10.71-10.4,19.38-20T788,173.91a5.35,5.35,0,0,1,3.88-1.4,5,5,0,0,1,3.25,1.4,5,5,0,0,1,1.39,3.26,4.88,4.88,0,0,1-1.7,3.87q-4.65,5.58-12.86,16.58T762.4,222q-11.31,13.33-25.57,27.13a232.36,232.36,0,0,1-31.16,25.26A164.74,164.74,0,0,1,669.1,293a120.74,120.74,0,0,1-41.39,7.13q-24.81-.31-41.23-11.93a73.58,73.58,0,0,1-25-30.7q-8.52-19-9.29-43.4a163.86,163.86,0,0,1,6.35-49.75q3.09-10.85,7-20.92a161.51,161.51,0,0,1,9.15-19.69q-4.65.93-9.15,1.71c-3,.51-6,1-9.14,1.39-1,.21-2,.36-2.79.46a21.43,21.43,0,0,1-2.79.16l-5.58.62H540a106.63,106.63,0,0,1-30.85-3.1,72.17,72.17,0,0,1-25.57-12.09l-4-3.41A72.68,72.68,0,0,1,466.2,92.69l-2.48-5A65.82,65.82,0,0,1,460,76.26l-1.55-6.2ZM714.82,52.08q5.26,0,10.07.46c3.21.31,6.25.68,9.15,1.09L755.43,58q8.05-1.55,11.32,3.1a14.57,14.57,0,0,1,2.17,11.16,25.61,25.61,0,0,1-6.36,12.55,21.94,21.94,0,0,1-13.95,7.29q-3.11.32-7.13,3.25a54.37,54.37,0,0,0-7.75,7,56.91,56.91,0,0,0-6.51,8.52A21.09,21.09,0,0,0,724,119a6.15,6.15,0,0,0,2.17,5.89q2.64,2.17,9.77,1.55,9-.93,19.22-8.68a117.5,117.5,0,0,0,19.07-18.29,131.83,131.83,0,0,0,15-22q6.19-11.46,7.13-19.84,1.86-15.81-6.82-22.94t-22-8.06a92.82,92.82,0,0,0-40.14,6.05,166.79,166.79,0,0,0-39.22,21.23L699,52.7l10.85-.62Z"/><path class="cls-2" d="M871.68,148.8l.62.31q1.86-.62,6.66.93a26.05,26.05,0,0,1,8.84,5,18.79,18.79,0,0,1,5.74,8.52q1.69,5.13-2,11.63-4,5.28-6.82,9.61t-5.43,8.68q-2.62,4.35-5.42,9.3t-6.51,11.78q-.63.93-3,5.74t-4.49,9.92a40.83,40.83,0,0,0-2.79,8.67c-.42,2.38.51,3.06,2.79,2a27.73,27.73,0,0,0,3.56-2.33q2.32-1.69,5.27-3.87t5.89-4.49c2-1.56,3.77-3,5.43-4.19q9.91-8.67,16-14.57t11.32-11.16q5.26-5.26,11.16-11.32t15.19-15.34a6.36,6.36,0,0,1,3.56-1.39,5.2,5.2,0,0,1,3.41.77,4.46,4.46,0,0,1,1.86,2.32,4.24,4.24,0,0,1-.46,3.26q-9.93,14.88-21.7,30.22t-24.8,29.3q-5.89,6.51-12.4,14.88a171.26,171.26,0,0,1-14.11,16,79.27,79.27,0,0,1-16.43,12.7,33.89,33.89,0,0,1-19.37,4.5q-10.54-.61-15.81-7.28t-5.89-17.21a57.35,57.35,0,0,1,1.7-15.81,129.88,129.88,0,0,1,5.43-17.05q3.41-8.67,7.59-17.21t7.91-16l2.79-5.27a149.27,149.27,0,0,0-19.53,22.78q-9.3,13.19-17.52,26.2T784.1,263.65q-7.59,11.33-14.72,17.21a2.55,2.55,0,0,1-1.55.93q-5.28,4.35-10.85,4.34a16,16,0,0,1-9.77-3.1,17.27,17.27,0,0,1-6-8.22,13.85,13.85,0,0,1,.62-10.69q10.55-22,20.3-43.56t19.84-42.78Q792,156.56,803,135.94t24-40.46a14.14,14.14,0,0,1,11.31-6.36,24.27,24.27,0,0,1,13.49,2.95,25,25,0,0,1,9.76,9.61,14.72,14.72,0,0,1,.78,13.33q-5,7.76-10.7,16.12t-11.62,16.74q-5.89,8.37-11.32,16.74t-10.07,16.12l-1.24,2.48q13-16.43,25.88-26A40.68,40.68,0,0,1,871.68,148.8Z"/><path class="cls-2" d="M895.86,250.79a96.56,96.56,0,0,1,9.61-26.66,141.68,141.68,0,0,1,18-26.35,76.9,76.9,0,0,1,9.3-18.13,87.27,87.27,0,0,1,14.41-16.44A83.51,83.51,0,0,1,965.3,151a52.91,52.91,0,0,1,20.77-5.58q15.18,0,23.25,5.58a27.26,27.26,0,0,1,10.85,14.1q2.79,8.53,1.08,19.38a128.26,128.26,0,0,1-5.42,21.7,165.21,165.21,0,0,0,23.25-18.44q10.53-10.08,19.22-18.76a5.33,5.33,0,0,1,3.87-1.4,5.52,5.52,0,0,1,3.26,1.24,4.45,4.45,0,0,1,1.39,3.11,6.38,6.38,0,0,1-1.39,4.18,164.17,164.17,0,0,1-28.68,32.24,175.35,175.35,0,0,1-31.46,21.7,134.21,134.21,0,0,1-16.43,23.25,123.59,123.59,0,0,1-19.69,18.13,91,91,0,0,1-21.39,11.79,55.81,55.81,0,0,1-21.54,3.87q-9.3,0-15.5-3.87a31.21,31.21,0,0,1-9.77-9.31,30.69,30.69,0,0,1-4.65-11.62A39.9,39.9,0,0,1,895.86,250.79Zm58.28-5.89a35.3,35.3,0,0,1-9.46-1.24,40,40,0,0,1-8.52-3.41q-2.79,7.75-2,12.86c.51,3.41,2.74,5.12,6.67,5.12q5.58.31,12.55-3.72a74.68,74.68,0,0,0,14.11-10.85q-3.72.63-7,.93T954.14,244.9ZM960,224.13a68.69,68.69,0,0,0,14-.78,112.85,112.85,0,0,0,13.33-2.94,153.24,153.24,0,0,0,10.23-17.36,68.79,68.79,0,0,0,5.89-15.81,37.88,37.88,0,0,0,.77-9.15,18.72,18.72,0,0,0-2.32-8.67,14.51,14.51,0,0,0-7-6q-4.8-2.16-12.86-1.24A42.9,42.9,0,0,0,970,165.85a24.86,24.86,0,0,1,7.28,3.57,54.35,54.35,0,0,1,6.82,5.42,20.55,20.55,0,0,1,4.34,5.58c.93,1.86.78,3.21-.46,4a66.6,66.6,0,0,0-23.1,14.73,136,136,0,0,0-19.06,22.16,23.65,23.65,0,0,0,6.51,2.17A42.92,42.92,0,0,0,960,224.13Z"/><path class="cls-2" d="M1180.75,202.08l-2.52-8q-11.58,9.9-23.84,19.24a102.8,102.8,0,0,0,8.22-17.2,52.93,52.93,0,0,0,3.25-15.66q0-16.42-8.37-24t-24.8-7.6a26.52,26.52,0,0,0-14.72,4.81,92.92,92.92,0,0,0-14.42,11.93q1.25-7.74-2.17-13.48a17,17,0,0,0-9.45-7.75q-6-2-13.33.46t-13.49,10.85q-5.86,9-11.17,17.66-6.46,10.65-12.08,20.94-4.78,8.78-9.34,17.6-5.18,10-10,20.06-9.13,18.92-18.14,38.75t-19.53,41.85a13.56,13.56,0,0,0,0,11.32,17.8,17.8,0,0,0,7.29,8.21,16.79,16.79,0,0,0,11.16,1.86q6.36-.93,11.62-8.06c.62-1.24,2.13-4,4.5-8.37s5.06-9.3,8.06-14.88,6.09-11.31,9.3-17.2,6-11,8.52-15.35a22.79,22.79,0,0,0,5,8.68,23,23,0,0,0,9.92,5.89,3.51,3.51,0,0,0,2,.62,9.89,9.89,0,0,1,2.32.31c.21.21,1.35.21,3.41,0q10.23-1.23,22.32-7.13a185.14,185.14,0,0,0,25-14.88q11.86-8.29,24.14-18.31l2-1.68Q1153,233.93,1164,224l3.27-3q7.74-7.07,15.06-14C1181.79,205.41,1181.27,203.74,1180.75,202.08ZM1102,223.67q-7.44,8.22-14.41,14.57a84.05,84.05,0,0,1-13.18,10.07q-6.2,3.72-10.23,3.41a8.24,8.24,0,0,1-4.34-1.55q-1.54-1.23,0-5.58l7.13-12.4q6.83-10.84,15-22.47a265.55,265.55,0,0,1,16.58-21.24,106.79,106.79,0,0,1,16.28-15.5q7.91-5.88,14.1-5.27,5.58,0,3.41,8.68a62.36,62.36,0,0,1-6,14,163.29,163.29,0,0,1-10.7,16.59l-1,1.35q-5.1,6.89-11,13.57C1103.09,222.46,1102.55,223.06,1102,223.67Zm111.29-48a5.05,5.05,0,0,0-1.7-3,6.48,6.48,0,0,0-3.26-1.55,4.21,4.21,0,0,0-3.41.93c-1.6,1.26-3.2,2.52-4.78,3.8q2.63,4.6,5.12,9.27l6.79-6.56A2.89,2.89,0,0,0,1213.29,175.62Z"/><path class="cls-3" d="M1357.13,248.36a36.84,36.84,0,0,0-6.78-10.66,39.13,39.13,0,0,0-13-10.26,43.17,43.17,0,0,0-18.3-4,40.73,40.73,0,0,0-32.4,17.58c-1.49,2.27-2.78,4.68-4.15,7a16.34,16.34,0,0,1-5.78,6.15c-3.38,2-7,1.85-10.59.86q-12.42-3.45-24.78-7.14c-9.4-2.82-18.75-5.78-28.13-8.67q-16.4-5-32.81-10.09-8.22-2.55-16.44-5.12l-2.43-.76c-2.1-.65-4.19-1.32-6.28-2q-19-6-37.9-12.11l-2.73-.87-15.28-4.88c-1.08-.34-2.18-.6-3.43-.94a8.16,8.16,0,0,0-.5,1.66,17.19,17.19,0,0,0,3.21,12.18c.49.65,1,1.28,1.52,1.89.27.34.56.67.86,1s.83.92,1.27,1.36.83.84,1.26,1.24a.17.17,0,0,0,.06.06,47.57,47.57,0,0,0,5,4.15c5.21,3.73,10.53,7.32,16,10.66l3.18,1.93c1.47.87,2.94,1.74,4.41,2.59,1.13.65,2.25,1.3,3.39,1.94l3.7,2.07q2.87,1.58,5.74,3.12c1.18.64,2.37,1.27,3.56,1.89.2.12.41.22.62.33.94.5,1.89,1,2.83,1.48,4.6,2.4,9.24,4.75,13.88,7.07,17.44,8.72,35,17.21,52.5,25.76,3.37,1.65,6.8,3.19,10.22,4.73,1.91.85,2,.7,3-1.21a60.54,60.54,0,0,1,3.56-6.53c4.16-6.33,10.11-9.14,17.66-8.51a39.35,39.35,0,0,1,15.57,5.17,187.47,187.47,0,0,1,16.43,10.66,160.76,160.76,0,0,0,16,10.32,39.9,39.9,0,0,0,31.51,2.92,38.33,38.33,0,0,0,21.49-16.66C1361.36,273.94,1362.28,261.35,1357.13,248.36Zm-99.4,94.93a142.4,142.4,0,0,0-10.87-16.93c-5.39-7.54-10.72-15.1-14-23.89a4,4,0,0,0-2.29-2.36c-6.79-3.18-13.56-6.43-20.34-9.64-.58-.28-1.22-.44-1.82-.66l-.34.3c1,3.31,2,6.6,2.86,9.93s1.94,6.76,2.53,10.21a12.17,12.17,0,0,1-3.7,11.43,31.89,31.89,0,0,1-5.82,4,68.89,68.89,0,0,0-7.76,5c-8.46,6.78-13.12,15.9-14.4,26.45a38.57,38.57,0,0,0,10.23,31.8A39.1,39.1,0,0,0,1202,397a41.31,41.31,0,0,0,23.45,5.06,38.89,38.89,0,0,0,23-9.71,39.81,39.81,0,0,0,12.35-19.51A39,39,0,0,0,1257.73,343.29Zm-65.81-181.21a106.74,106.74,0,0,0-10.34-14.21c-1.79-2-3.85-3.82-5.68-5.82-3.65-4-8.39-4.79-13.43-4.68-1.88,0-2.08.45-1.63,2.24.13.52.27,1,.44,1.57q2.31,7.17,4.61,14.35,4.93,15.3,9.85,30.61,1.26,3.95,2.49,7.9l1.43-1.22q10-8.58,20.48-17Q1196.18,168.88,1191.92,162.08Zm38.25,72.11c-.84-1.81-1.68-3.62-2.58-5.4q-9.16-18-18.35-36.08-2-3.81-4-7.59-6.52,6.3-14,13.44-4.4,4.23-9,8.51c1.57,5,3.16,10.09,4.75,15.19l43.68,13.54C1230.49,235.07,1230.37,234.61,1230.17,234.19Z"/><path class="cls-3" d="M1095.94,202.45c1.25.35,2.35.61,3.43,1l18,5.74c12.63,4,25.26,8.11,37.9,12.12,8.37,2.66,16.76,5.26,25.15,7.86q16.39,5.07,32.81,10.09c9.38,2.89,18.73,5.85,28.13,8.67q12.35,3.69,24.78,7.13c3.58,1,7.21,1.1,10.59-.86a16.32,16.32,0,0,0,5.78-6.14c1.37-2.34,2.66-4.75,4.15-7a40.73,40.73,0,0,1,32.4-17.58,43,43,0,0,1,18.3,4,38.88,38.88,0,0,1,13,10.26,36.7,36.7,0,0,1,6.78,10.66c5.15,13,4.23,25.57-3.28,37.37a38.33,38.33,0,0,1-21.49,16.66,39.94,39.94,0,0,1-31.51-2.92,162.57,162.57,0,0,1-16-10.32,187.47,187.47,0,0,0-16.43-10.66,39.35,39.35,0,0,0-15.57-5.17c-7.55-.64-13.5,2.18-17.66,8.51a60.39,60.39,0,0,0-3.56,6.52c-.94,1.92-1.06,2.07-3,1.21-3.42-1.53-6.85-3.07-10.22-4.72-17.51-8.55-35.06-17-52.5-25.76-14-7-27.94-14.23-41.31-22.42-5.46-3.34-10.78-6.93-16-10.67a45.71,45.71,0,0,1-10-9.69,17.19,17.19,0,0,1-3.21-12.18A8.42,8.42,0,0,1,1095.94,202.45Zm241.12,79.42a24.9,24.9,0,1,0-34.75-35.66c-10.76,10.76-8.52,26.83-.17,35.21C1311.42,290.74,1328.54,291.11,1337.06,281.87Z"/><path class="cls-3" d="M1208.44,289.8c.6.22,1.24.39,1.82.67,6.78,3.21,13.55,6.45,20.34,9.63a4,4,0,0,1,2.29,2.37c3.25,8.78,8.58,16.35,14,23.89a141.59,141.59,0,0,1,10.87,16.93,39,39,0,0,1,3.06,29.59,39.85,39.85,0,0,1-12.35,19.51,38.81,38.81,0,0,1-23,9.7A41.14,41.14,0,0,1,1202,397a41.17,41.17,0,0,1-20.16-39.92c1.28-10.56,5.94-19.67,14.4-26.45a67.52,67.52,0,0,1,7.76-5,32.45,32.45,0,0,0,5.82-4,12.14,12.14,0,0,0,3.7-11.42c-.59-3.45-1.62-6.83-2.53-10.22s-1.91-6.61-2.86-9.92Zm-4,54.56a24.26,24.26,0,0,0,0,35,24.72,24.72,0,0,0,34.72.51,25.07,25.07,0,0,0,.37-35.7A24.63,24.63,0,0,0,1204.4,344.36Z"/><path class="cls-2" d="M1205.26,185.12q-6.52,6.3-14,13.44-4.4,4.23-9,8.51c-.53-1.66-1-3.33-1.57-5l-2.52-8,1.43-1.22q10-8.58,20.48-17Q1202.77,180.46,1205.26,185.12Z"/><path class="cls-3" d="M1200.14,175.85q-10.5,8.37-20.48,17l-1.43,1.22q-1.23-4-2.49-7.9-4.9-15.31-9.85-30.61-2.3-7.17-4.61-14.35c-.17-.52-.31-1.05-.44-1.57-.45-1.79-.25-2.2,1.63-2.24,5-.11,9.78.68,13.43,4.68,1.83,2,3.89,3.8,5.68,5.82a106.74,106.74,0,0,1,10.34,14.21Q1196.18,168.88,1200.14,175.85Z"/><path class="cls-3" d="M1230.75,235.8l-43.68-13.54c-1.59-5.1-3.18-10.15-4.75-15.19q4.56-4.27,9-8.51,7.46-7.16,14-13.44,2,3.78,4,7.59,9.23,18,18.35,36.08c.9,1.78,1.74,3.59,2.58,5.4C1230.37,234.61,1230.49,235.07,1230.75,235.8Z"/><path class="cls-4" d="M1337.06,281.87c-8.52,9.24-25.64,8.87-34.92-.45-8.35-8.38-10.59-24.45.17-35.21a24.9,24.9,0,1,1,34.75,35.66Z"/><path class="cls-4" d="M1204.4,344.36a24.63,24.63,0,0,1,35.07-.18,25.07,25.07,0,0,1-.37,35.7,24.72,24.72,0,0,1-34.72-.51A24.26,24.26,0,0,1,1204.4,344.36Z"/></svg>